<?xml version="1.0" encoding="utf-8"?>
<!-- Generator: Adobe Illustrator 19.1.0, SVG Export Plug-In . SVG Version: 6.00 Build 0)  -->
<svg version="1.1" id="Layer_1" xmlns="http://www.w3.org/2000/svg" xmlns:xlink="http://www.w3.org/1999/xlink" x="0px" y="0px"
	 viewBox="0 0 149.1 171.8" style="enable-background:new 0 0 149.1 171.8;" xml:space="preserve">
<style type="text/css">
	.st0{fill:#FFFFFF;}
</style>
<g>
	<path class="st0" d="M74.9,3.1l-72,41.6v83.1l72,41.6l72-41.6V44.7L74.9,3.1z M65.6,49.8c0,20.2,0,40.4,0,60.6
		c0,7.5-4.3,11.8-11.8,11.9c-3.8,0-7.7,0-11.5,0c-7.1-0.1-11.4-4.3-11.5-11.4c0-3.3,0-6.5,0-9.9c3.7,0,7,0,10.5,0
		c0,3.5,0,6.9,0,10.4c4.5,0,8.9,0,13.4,0c0-21.3,0-42.6,0-64c3.7,0,7.1,0,10.8,0C65.6,48.3,65.6,49.1,65.6,49.8z M115,112.4
		c0,5.2-4.3,9.6-10,9.8c-8.9,0.3-17.8,0.1-26.7,0.1c-0.1,0-0.2-0.1-0.5-0.3c0-24.8,0-49.6,0-74.3c0.2-0.1,0.3-0.3,0.5-0.3
		c9.2,0,18.4-0.1,27.6,0.1c4.9,0.1,9.2,4.7,9.2,9.7C115,75.6,115.1,94,115,112.4z"/>
	<path class="st0" d="M88.4,111.5c5.3,0,10.5,0,15.8,0c0-17.8,0-35.5,0-53.3c-5.3,0-10.5,0-15.8,0C88.4,75.9,88.4,93.6,88.4,111.5z"
		/>
</g>
</svg>
